<?xml version="1.0" encoding="UTF-8" standalone="no"?>
<!-- Created with Inkscape (http://www.inkscape.org/) -->

<svg
   xmlns:dc="http://purl.org/dc/elements/1.1/"
   xmlns:cc="http://creativecommons.org/ns#"
   xmlns:rdf="http://www.w3.org/1999/02/22-rdf-syntax-ns#"
   xmlns:svg="http://www.w3.org/2000/svg"
   xmlns="http://www.w3.org/2000/svg"
   xmlns:sodipodi="http://sodipodi.sourceforge.net/DTD/sodipodi-0.dtd"
   xmlns:inkscape="http://www.inkscape.org/namespaces/inkscape"
   width="500"
   height="200"
   id="svg3837"
   version="1.1"
   inkscape:version="0.48.5 r10040"
   sodipodi:docname="alven-symbol-text.svg"
   inkscape:export-filename="/home/zed/development/haskell/alven/assets/alven-symbol-text.png"
   inkscape:export-xdpi="72.00943"
   inkscape:export-ydpi="72.00943">
  <defs
     id="defs3839" />
  <sodipodi:namedview
     id="base"
     pagecolor="#ffffff"
     bordercolor="#666666"
     borderopacity="1.0"
     inkscape:pageopacity="0.0"
     inkscape:pageshadow="2"
     inkscape:zoom="0.49497475"
     inkscape:cx="517.14388"
     inkscape:cy="-336.78685"
     inkscape:document-units="px"
     inkscape:current-layer="layer3"
     showgrid="false"
     fit-margin-top="0"
     fit-margin-left="0"
     fit-margin-right="0"
     fit-margin-bottom="0"
     inkscape:window-width="956"
     inkscape:window-height="1161"
     inkscape:window-x="960"
     inkscape:window-y="18"
     inkscape:window-maximized="0" />
  <metadata
     id="metadata3842">
    <rdf:RDF>
      <cc:Work
         rdf:about="">
        <dc:format>image/svg+xml</dc:format>
        <dc:type
           rdf:resource="http://purl.org/dc/dcmitype/StillImage" />
        <dc:title></dc:title>
      </cc:Work>
    </rdf:RDF>
  </metadata>
  <g
     inkscape:groupmode="layer"
     id="layer3"
     inkscape:label="Layer"
     transform="translate(-37.686709,28.25318)">
    <flowRoot
       xml:space="preserve"
       id="flowRoot3867"
       style="font-size:40px;font-style:normal;font-weight:normal;line-height:125%;letter-spacing:0px;word-spacing:0px;fill:#000000;fill-opacity:1;stroke:none;font-family:Sans"
       transform="translate(-239.6425,-598.27767)"><flowRegion
         id="flowRegion3869"><rect
           id="rect3871"
           width="507.85715"
           height="234.28572"
           x="295"
           y="578.07648" /></flowRegion><flowPara
         id="flowPara3873"
         style="font-size:144px;font-style:normal;font-variant:normal;font-weight:bold;font-stretch:normal;font-family:Cabin;-inkscape-font-specification:Cabin Bold">Alven</flowPara></flowRoot>    <path
       inkscape:connector-curvature="0"
       style="fill:#000000;fill-opacity:1;stroke:none"
       d="m 463.13891,-0.72634732 -1.69008,0.0558 c -3.69396,0.0176 -5.71445,0.0627 -7.27349,0.25101 -32.30896,0.47916 -20.83423,61.88332532 -25.8198,43.86965032 -5.03804,-18.20331 -26.03472,-38.9206203 -25.19506,-32.30123 0.83968,6.61938 20.17543,28.17419 18.49609,52.169468 -1.67934,23.995268 7.53007,4.094128 7.53007,4.094128 0.67393,19.89641 7.09915,41.539401 10.49749,53.396601 3.82013,12.79026 15.11592,21.49696 15.11592,21.49696 l 0,-1.4335 c 0.0374,0.0234 0.11146,0.079 0.15618,0.10598 l -1.19365,-67.318861 -15.9526,-4.14991 c 0,0 -2.97193,-10.348518 -1.7124,-14.485635 1.2595,-4.13711 22.90816,1.840688 22.90816,1.840688 0,0 2.72744,10.547877 0.41833,15.305567 -2.03866,4.20048 2.29012,8.07257 3.33555,8.92454 0,0.001 0,0.251 0,0.251 0,0 0.094,-0.0693 0.16176,-0.12272 0.0145,0.011 0.0725,0.0558 0.0725,0.0558 0,0 0,-0.11679 0,-0.11713 1.04543,-0.85197 5.37421,-4.72406 3.33555,-8.92454 -2.30911,-4.75768 0.41833,-15.305565 0.41833,-15.305565 0,0 21.64866,-5.977798 22.90816,-1.840688 1.25952,4.137117 -1.7124,14.485633 -1.7124,14.485633 l -15.94702,4.14991 -1.19923,67.318861 c 0.0447,-0.027 0.11877,-0.0825 0.15618,-0.10597 l 0,1.4335 c 0,0 11.30137,-8.7067 15.1215,-21.49697 3.39833,-11.8572 9.81797,-33.500191 10.4919,-53.396591 0,0 9.215,19.90114 7.53565,-4.094136 -1.67934,-23.99527 17.65084,-45.55008 18.49052,-52.16946 0.83966,-6.6193903 -20.15702,14.09791 -25.19507,32.30123 -4.98556,18.013667 6.48917,-43.39050032 -25.81979,-43.86966032 -1.53236,-0.18511 -4.81981,-0.28671 -8.43926,-0.30678 -1.8e-4,-0.006 3.6e-4,-0.0634 0,-0.0669 z"
       id="path2985-3" />
  </g>
</svg>
