<?xml version="1.0" encoding="UTF-8" standalone="no"?>
<!-- Created with Inkscape (http://www.inkscape.org/) -->

<svg
   xmlns:dc="http://purl.org/dc/elements/1.1/"
   xmlns:cc="http://creativecommons.org/ns#"
   xmlns:rdf="http://www.w3.org/1999/02/22-rdf-syntax-ns#"
   xmlns:svg="http://www.w3.org/2000/svg"
   xmlns="http://www.w3.org/2000/svg"
   xmlns:sodipodi="http://sodipodi.sourceforge.net/DTD/sodipodi-0.dtd"
   xmlns:inkscape="http://www.inkscape.org/namespaces/inkscape"
   width="500"
   height="200"
   id="svg3837"
   version="1.1"
   inkscape:version="0.48.5 r10040"
   sodipodi:docname="New document 7">
  <defs
     id="defs3839" />
  <sodipodi:namedview
     id="base"
     pagecolor="#ffffff"
     bordercolor="#666666"
     borderopacity="1.0"
     inkscape:pageopacity="0.0"
     inkscape:pageshadow="2"
     inkscape:zoom="0.98994949"
     inkscape:cx="315.49256"
     inkscape:cy="319.04684"
     inkscape:document-units="px"
     inkscape:current-layer="layer3"
     showgrid="false"
     fit-margin-top="0"
     fit-margin-left="0"
     fit-margin-right="0"
     fit-margin-bottom="0"
     inkscape:window-width="1916"
     inkscape:window-height="1161"
     inkscape:window-x="0"
     inkscape:window-y="18"
     inkscape:window-maximized="0" />
  <metadata
     id="metadata3842">
    <rdf:RDF>
      <cc:Work
         rdf:about="">
        <dc:format>image/svg+xml</dc:format>
        <dc:type
           rdf:resource="http://purl.org/dc/dcmitype/StillImage" />
        <dc:title></dc:title>
      </cc:Work>
    </rdf:RDF>
  </metadata>
  <g
     inkscape:label="Layer 1"
     inkscape:groupmode="layer"
     id="layer1"
     transform="translate(-37.686709,28.25318)">
    <path
       style="fill:#000000;fill-opacity:1;stroke:none"
       d="m 464.49043,6.3147616 c -0.0645,0.83904 -0.18145,77.0895204 -0.18145,77.0895204 0,0 5.52637,-4.08976 3.35578,-8.56204 -2.17059,-4.4723 0.39068,-14.38884 0.39068,-14.38884 0,0 20.35262,-5.62139 21.53656,-1.73245 1.18398,3.88894 -1.61157,13.61888 -1.61157,13.61888 l -14.99257,3.89798 -1.12323,63.282068 c 0.0421,-0.0255 0.1113,-0.0742 0.14643,-0.0963 l 0,1.34745 c 0,0 10.62022,-8.18875 14.21121,-20.21177 3.19448,-11.14593 9.23131,-31.489638 9.86482,-50.192538 0,0 8.65979,18.70603 7.08118,-3.84985 -1.57861,-22.55588 16.59621,-42.81527 17.38551,-49.03758 0.78931,-6.22231 -18.94949,13.2544 -23.68531,30.36575 -4.68652,16.9331 6.09948,-40.7911804 -24.27138,-41.2416004 -1.46552,-0.17704 -4.63436,-0.27224 -8.10672,-0.28874 z"
       id="path2985"
       inkscape:connector-curvature="0"
       sodipodi:nodetypes="ccscscccccccsssccc" />
    <path
       style="fill:#000000;fill-opacity:1;stroke:none"
       d="m 462.27344,6.2712916 c 0.0645,0.83907 0.18146,77.0895204 0.18146,77.0895204 0,0 -5.52637,-4.08974 -3.35578,-8.56203 2.17058,-4.47228 -0.39069,-14.38885 -0.39069,-14.38885 0,0 -20.35261,-5.62137 -21.53657,-1.73243 -1.18395,3.88893 1.61159,13.61887 1.61159,13.61887 l 14.99256,3.898 1.12324,63.282048 c -0.0421,-0.0254 -0.1113,-0.0742 -0.14644,-0.0963 l 0,1.34745 c 0,0 -10.62021,-8.18873 -14.21119,-20.21175 -3.19449,-11.14592 -9.23133,-31.489648 -9.86483,-50.192558 0,0 -8.65977,18.70605 -7.08118,-3.84985 1.5786,-22.55588 -16.59621,-42.81526 -17.38552,-49.03757 -0.78929,-6.22232 18.9495,13.2544 23.68533,30.36576 4.6865,16.93309 -6.0995,-40.7912004 24.27136,-41.2416204 1.46552,-0.17702 4.63437,-0.27222 8.10674,-0.28873 z"
       id="path2985-6"
       inkscape:connector-curvature="0"
       sodipodi:nodetypes="ccscscccccccsssccc" />
  </g>
  <g
     inkscape:groupmode="layer"
     id="layer3"
     inkscape:label="Layer"
     transform="translate(-37.686709,28.25318)">
    <flowRoot
       xml:space="preserve"
       id="flowRoot3867"
       style="font-size:40px;font-style:normal;font-weight:normal;line-height:125%;letter-spacing:0px;word-spacing:0px;fill:#000000;fill-opacity:1;stroke:none;font-family:Sans"
       transform="translate(-239.6425,-598.27767)"><flowRegion
         id="flowRegion3869"><rect
           id="rect3871"
           width="507.85715"
           height="234.28572"
           x="295"
           y="578.07648" /></flowRegion><flowPara
         id="flowPara3873"
         style="font-size:144px;font-style:normal;font-variant:normal;font-weight:bold;font-stretch:normal;font-family:Cabin;-inkscape-font-specification:Cabin Bold">Alven</flowPara></flowRoot>  </g>
</svg>
