<?xml version="1.0" encoding="UTF-8" standalone="no"?>
<!-- Created with Inkscape (http://www.inkscape.org/) -->

<svg
   xmlns:dc="http://purl.org/dc/elements/1.1/"
   xmlns:cc="http://creativecommons.org/ns#"
   xmlns:rdf="http://www.w3.org/1999/02/22-rdf-syntax-ns#"
   xmlns:svg="http://www.w3.org/2000/svg"
   xmlns="http://www.w3.org/2000/svg"
   xmlns:sodipodi="http://sodipodi.sourceforge.net/DTD/sodipodi-0.dtd"
   xmlns:inkscape="http://www.inkscape.org/namespaces/inkscape"
   width="744.09448819"
   height="1052.3622047"
   id="svg2"
   version="1.1"
   inkscape:version="0.48.5 r10040"
   sodipodi:docname="alven-symbol.svg">
  <defs
     id="defs4" />
  <sodipodi:namedview
     id="base"
     pagecolor="#ffffff"
     bordercolor="#666666"
     borderopacity="1.0"
     inkscape:pageopacity="0.0"
     inkscape:pageshadow="2"
     inkscape:zoom="0.39532861"
     inkscape:cx="-21.364041"
     inkscape:cy="-121.05726"
     inkscape:document-units="px"
     inkscape:current-layer="layer1"
     showgrid="false"
     inkscape:window-width="1916"
     inkscape:window-height="1161"
     inkscape:window-x="0"
     inkscape:window-y="18"
     inkscape:window-maximized="0" />
  <metadata
     id="metadata7">
    <rdf:RDF>
      <cc:Work
         rdf:about="">
        <dc:format>image/svg+xml</dc:format>
        <dc:type
           rdf:resource="http://purl.org/dc/dcmitype/StillImage" />
        <dc:title />
      </cc:Work>
    </rdf:RDF>
  </metadata>
  <g
     inkscape:label="symbol"
     inkscape:groupmode="layer"
     id="layer1">
    <path
       style="fill:#333333;fill-opacity:1;stroke:none"
       d="M 377.28125 119.15625 L 367.8125 119.46875 C 347.11697 119.56713 335.79712 119.81988 327.0625 120.875 C 146.05043 123.55951 210.33804 467.57848 182.40625 366.65625 C 154.18042 264.67157 36.545755 148.60216 41.25 185.6875 C 45.954335 222.77283 154.28358 343.53441 144.875 477.96875 C 135.46642 612.40306 187.0625 500.90625 187.0625 500.90625 C 190.83822 612.37656 226.8357 733.63214 245.875 800.0625 C 267.27745 871.72038 330.5625 920.5 330.5625 920.5 L 330.5625 912.46875 C 330.77206 912.6 331.18695 912.91106 331.4375 913.0625 L 324.75 535.90625 L 235.375 512.65625 C 235.375 512.65625 218.72474 454.67833 225.78125 431.5 C 232.83766 408.32169 354.125 441.8125 354.125 441.8125 C 354.125 441.8125 369.40558 500.90739 356.46875 527.5625 C 345.04703 551.09579 369.2992 572.78932 375.15625 577.5625 C 375.15624 577.57113 375.15625 578.96875 375.15625 578.96875 C 375.15625 578.96875 375.68299 578.58052 376.0625 578.28125 C 376.14403 578.34327 376.46875 578.59375 376.46875 578.59375 C 376.46875 578.59375 376.46875 577.93938 376.46875 577.9375 C 382.3258 573.16432 406.57798 551.4708 395.15625 527.9375 C 382.21942 501.28239 397.5 442.1875 397.5 442.1875 C 397.5 442.1875 518.78735 408.69667 525.84375 431.875 C 532.90026 455.05332 516.25 513.03125 516.25 513.03125 L 426.90625 536.28125 L 420.1875 913.4375 C 420.43805 913.28606 420.85293 912.97499 421.0625 912.84375 L 421.0625 920.875 C 421.0625 920.875 484.3788 872.09537 505.78125 800.4375 C 524.82055 734.00713 560.78678 612.75156 564.5625 501.28125 C 564.5625 501.28125 616.18983 612.77808 606.78125 478.34375 C 597.37267 343.90943 705.67067 223.14784 710.375 186.0625 C 715.07925 148.97717 597.44458 265.04656 569.21875 367.03125 C 541.28696 467.95348 605.57457 123.93452 424.5625 121.25 C 415.97737 120.21294 397.55932 119.64373 377.28125 119.53125 C 377.27979 119.49781 377.28276 119.17588 377.28125 119.15625 z "
       id="path2985" />
  </g>
</svg>
